<mxfile host="65bd71144e">
    <diagram id="A1FyPuQ2Gv7DDz1w47x2" name="Page-1">
        <mxGraphModel dx="1493" dy="1195" grid="1" gridSize="10" guides="1" tooltips="1" connect="1" arrows="1" fold="1" page="1" pageScale="1" pageWidth="850" pageHeight="1100" math="0" shadow="0">
            <root>
                <mxCell id="0"/>
                <mxCell id="1" parent="0"/>
                <mxCell id="rvADm7V4hpytlf9aMcwg-32" style="edgeStyle=orthogonalEdgeStyle;rounded=0;orthogonalLoop=1;jettySize=auto;html=1;entryX=0.5;entryY=0;entryDx=0;entryDy=0;fontSize=15;" parent="1" source="rvADm7V4hpytlf9aMcwg-1" target="rvADm7V4hpytlf9aMcwg-2" edge="1">
                    <mxGeometry relative="1" as="geometry"/>
                </mxCell>
                <mxCell id="rvADm7V4hpytlf9aMcwg-1" value="&lt;b&gt;START&lt;/b&gt;" style="ellipse;whiteSpace=wrap;html=1;" parent="1" vertex="1">
                    <mxGeometry x="540" y="80" width="120" height="70" as="geometry"/>
                </mxCell>
                <mxCell id="rvADm7V4hpytlf9aMcwg-29" style="edgeStyle=orthogonalEdgeStyle;rounded=0;orthogonalLoop=1;jettySize=auto;html=1;exitX=0.5;exitY=1;exitDx=0;exitDy=0;entryX=0.5;entryY=0;entryDx=0;entryDy=0;fontSize=15;" parent="1" source="rvADm7V4hpytlf9aMcwg-2" target="rvADm7V4hpytlf9aMcwg-5" edge="1">
                    <mxGeometry relative="1" as="geometry"/>
                </mxCell>
                <mxCell id="rvADm7V4hpytlf9aMcwg-2" value="&lt;b&gt;INPUT TEXT&lt;/b&gt;" style="shape=parallelogram;perimeter=parallelogramPerimeter;whiteSpace=wrap;html=1;fixedSize=1;" parent="1" vertex="1">
                    <mxGeometry x="540" y="180" width="120" height="60" as="geometry"/>
                </mxCell>
                <mxCell id="rvADm7V4hpytlf9aMcwg-3" value="&lt;b&gt;&lt;font style=&quot;font-size: 15px;&quot;&gt;FLOWCHART TEXT POLINDROM JS&lt;/font&gt;&lt;/b&gt;" style="text;html=1;align=center;verticalAlign=middle;resizable=0;points=[];autosize=1;strokeColor=none;fillColor=none;" parent="1" vertex="1">
                    <mxGeometry x="460" y="40" width="280" height="30" as="geometry"/>
                </mxCell>
                <mxCell id="6" value="" style="edgeStyle=none;html=1;" parent="1" source="rvADm7V4hpytlf9aMcwg-5" target="5" edge="1">
                    <mxGeometry relative="1" as="geometry"/>
                </mxCell>
                <mxCell id="rvADm7V4hpytlf9aMcwg-5" value="&lt;b&gt;covert to lower case&lt;/b&gt;" style="rounded=0;whiteSpace=wrap;html=1;fontSize=15;" parent="1" vertex="1">
                    <mxGeometry x="525" y="270" width="150" height="60" as="geometry"/>
                </mxCell>
                <mxCell id="rvADm7V4hpytlf9aMcwg-31" style="edgeStyle=orthogonalEdgeStyle;rounded=0;orthogonalLoop=1;jettySize=auto;html=1;exitX=0.5;exitY=1;exitDx=0;exitDy=0;entryX=0.5;entryY=0;entryDx=0;entryDy=0;fontSize=15;" parent="1" source="rvADm7V4hpytlf9aMcwg-7" target="rvADm7V4hpytlf9aMcwg-15" edge="1">
                    <mxGeometry relative="1" as="geometry"/>
                </mxCell>
                <mxCell id="rvADm7V4hpytlf9aMcwg-7" value="&lt;b&gt;i =&amp;nbsp;input.lenght - 1&lt;/b&gt;" style="rounded=0;whiteSpace=wrap;html=1;fontSize=15;" parent="1" vertex="1">
                    <mxGeometry x="525" y="470" width="150" height="70" as="geometry"/>
                </mxCell>
                <mxCell id="rvADm7V4hpytlf9aMcwg-24" value="true" style="edgeStyle=orthogonalEdgeStyle;rounded=0;orthogonalLoop=1;jettySize=auto;html=1;fontSize=15;" parent="1" source="rvADm7V4hpytlf9aMcwg-15" target="rvADm7V4hpytlf9aMcwg-16" edge="1">
                    <mxGeometry x="-0.25" relative="1" as="geometry">
                        <Array as="points">
                            <mxPoint x="600" y="650"/>
                            <mxPoint x="600" y="650"/>
                        </Array>
                        <mxPoint as="offset"/>
                    </mxGeometry>
                </mxCell>
                <mxCell id="rvADm7V4hpytlf9aMcwg-15" value="&lt;b&gt;if i &amp;gt;= 0 ? i--&lt;/b&gt;" style="rhombus;whiteSpace=wrap;html=1;fontSize=15;" parent="1" vertex="1">
                    <mxGeometry x="545" y="560" width="110" height="80" as="geometry"/>
                </mxCell>
                <mxCell id="rvADm7V4hpytlf9aMcwg-35" value="" style="edgeStyle=orthogonalEdgeStyle;rounded=0;orthogonalLoop=1;jettySize=auto;html=1;fontSize=15;" parent="1" source="rvADm7V4hpytlf9aMcwg-16" target="rvADm7V4hpytlf9aMcwg-33" edge="1">
                    <mxGeometry relative="1" as="geometry"/>
                </mxCell>
                <mxCell id="rvADm7V4hpytlf9aMcwg-16" value="&lt;b&gt;result += input[i]&amp;nbsp;&lt;/b&gt;" style="rounded=0;whiteSpace=wrap;html=1;fontSize=15;" parent="1" vertex="1">
                    <mxGeometry x="525" y="680" width="160" height="60" as="geometry"/>
                </mxCell>
                <mxCell id="rvADm7V4hpytlf9aMcwg-43" style="edgeStyle=orthogonalEdgeStyle;rounded=0;orthogonalLoop=1;jettySize=auto;html=1;exitX=0;exitY=0.5;exitDx=0;exitDy=0;entryX=0.5;entryY=0;entryDx=0;entryDy=0;fontSize=15;" parent="1" source="rvADm7V4hpytlf9aMcwg-33" target="rvADm7V4hpytlf9aMcwg-38" edge="1">
                    <mxGeometry relative="1" as="geometry"/>
                </mxCell>
                <mxCell id="2" style="edgeStyle=none;html=1;exitX=1;exitY=0.5;exitDx=0;exitDy=0;entryX=0.5;entryY=0;entryDx=0;entryDy=0;" parent="1" source="rvADm7V4hpytlf9aMcwg-33" target="rvADm7V4hpytlf9aMcwg-40" edge="1">
                    <mxGeometry relative="1" as="geometry">
                        <Array as="points">
                            <mxPoint x="720" y="810"/>
                        </Array>
                    </mxGeometry>
                </mxCell>
                <mxCell id="rvADm7V4hpytlf9aMcwg-33" value="&lt;b&gt;if result = input ?&amp;nbsp;&lt;/b&gt;" style="rhombus;whiteSpace=wrap;html=1;fontSize=15;" parent="1" vertex="1">
                    <mxGeometry x="515" y="770" width="180" height="80" as="geometry"/>
                </mxCell>
                <mxCell id="rvADm7V4hpytlf9aMcwg-48" style="edgeStyle=orthogonalEdgeStyle;rounded=0;orthogonalLoop=1;jettySize=auto;html=1;entryX=0;entryY=0.5;entryDx=0;entryDy=0;fontSize=15;" parent="1" source="rvADm7V4hpytlf9aMcwg-38" target="rvADm7V4hpytlf9aMcwg-46" edge="1">
                    <mxGeometry relative="1" as="geometry">
                        <mxPoint x="520" y="990" as="targetPoint"/>
                        <Array as="points">
                            <mxPoint x="480" y="990"/>
                        </Array>
                    </mxGeometry>
                </mxCell>
                <mxCell id="rvADm7V4hpytlf9aMcwg-38" value="&lt;b&gt;output &quot;polindrom&quot;&lt;/b&gt;" style="shape=parallelogram;perimeter=parallelogramPerimeter;whiteSpace=wrap;html=1;fixedSize=1;fontSize=15;" parent="1" vertex="1">
                    <mxGeometry x="420" y="860" width="120" height="60" as="geometry"/>
                </mxCell>
                <mxCell id="rvADm7V4hpytlf9aMcwg-49" style="edgeStyle=orthogonalEdgeStyle;rounded=0;orthogonalLoop=1;jettySize=auto;html=1;fontSize=15;entryX=1;entryY=0.5;entryDx=0;entryDy=0;" parent="1" source="rvADm7V4hpytlf9aMcwg-40" target="rvADm7V4hpytlf9aMcwg-46" edge="1">
                    <mxGeometry relative="1" as="geometry">
                        <mxPoint x="670" y="990" as="targetPoint"/>
                        <Array as="points">
                            <mxPoint x="710" y="990"/>
                            <mxPoint x="665" y="990"/>
                        </Array>
                    </mxGeometry>
                </mxCell>
                <mxCell id="rvADm7V4hpytlf9aMcwg-40" value="&lt;b&gt;output &quot;not polindrom&quot;&lt;/b&gt;" style="shape=parallelogram;perimeter=parallelogramPerimeter;whiteSpace=wrap;html=1;fixedSize=1;fontSize=15;" parent="1" vertex="1">
                    <mxGeometry x="660" y="860" width="120" height="60" as="geometry"/>
                </mxCell>
                <mxCell id="rvADm7V4hpytlf9aMcwg-46" value="&lt;b&gt;END&lt;/b&gt;" style="ellipse;whiteSpace=wrap;html=1;fontSize=15;" parent="1" vertex="1">
                    <mxGeometry x="540" y="950" width="120" height="80" as="geometry"/>
                </mxCell>
                <mxCell id="rvADm7V4hpytlf9aMcwg-50" value="&lt;span&gt;Algoritma&lt;br&gt;1. mulai&lt;br&gt;2. memasukkan input text&lt;br&gt;&lt;/span&gt;&lt;div&gt;&lt;span&gt;&lt;span&gt;3. mengubah input menjadi huruf kecil&lt;/span&gt;&lt;/span&gt;&lt;/div&gt;&lt;div&gt;&lt;span&gt;&lt;span&gt;4. apabila panjang input lebih dari 2&amp;nbsp;&lt;/span&gt;&lt;/span&gt;&lt;/div&gt;&lt;div&gt;&lt;span&gt;&lt;span&gt;5. jika salah selesai&amp;nbsp;&lt;/span&gt;&lt;/span&gt;&lt;/div&gt;&lt;div&gt;&lt;span&gt;&lt;span&gt;6. membuat variable i = input.lenght - 1&lt;/span&gt;&lt;/span&gt;&lt;/div&gt;&lt;div&gt;&lt;span&gt;&lt;span&gt;7. apabila var i lebih dari sama dengan 0&lt;/span&gt;&lt;/span&gt;&lt;/div&gt;&lt;div&gt;&lt;span&gt;&lt;span&gt;8. maka var result += input[ i ]&lt;/span&gt;&lt;/span&gt;&lt;/div&gt;&lt;div&gt;&lt;span&gt;&lt;span&gt;9. kemudian apabila result sama dengan input&lt;/span&gt;&lt;/span&gt;&lt;/div&gt;&lt;div&gt;&lt;span&gt;&lt;span&gt;10. jika benar output &quot;polindrom&quot;&lt;/span&gt;&lt;/span&gt;&lt;/div&gt;&lt;div&gt;&lt;span&gt;&lt;span&gt;11. jika salah output &quot;not polindrom&quot;&lt;/span&gt;&lt;/span&gt;&lt;/div&gt;&lt;div&gt;&lt;span&gt;&lt;span&gt;12. selesai&lt;/span&gt;&lt;/span&gt;&lt;/div&gt;" style="text;html=1;align=left;verticalAlign=middle;resizable=0;points=[];autosize=1;strokeColor=none;fillColor=none;fontSize=15;fontStyle=1" parent="1" vertex="1">
                    <mxGeometry x="70" y="70" width="340" height="240" as="geometry"/>
                </mxCell>
                <mxCell id="10" value="true" style="edgeStyle=none;html=1;entryX=0.5;entryY=0;entryDx=0;entryDy=0;fontStyle=1;fontSize=14;" parent="1" source="5" target="rvADm7V4hpytlf9aMcwg-7" edge="1">
                    <mxGeometry relative="1" as="geometry"/>
                </mxCell>
                <mxCell id="12" value="false" style="edgeStyle=none;html=1;entryX=0;entryY=0.5;entryDx=0;entryDy=0;fontSize=14;fontStyle=1" parent="1" source="5" target="rvADm7V4hpytlf9aMcwg-46" edge="1">
                    <mxGeometry x="-0.8135" relative="1" as="geometry">
                        <Array as="points">
                            <mxPoint x="350" y="395"/>
                            <mxPoint x="350" y="460"/>
                            <mxPoint x="350" y="690"/>
                            <mxPoint x="350" y="830"/>
                            <mxPoint x="350" y="990"/>
                        </Array>
                        <mxPoint as="offset"/>
                    </mxGeometry>
                </mxCell>
                <mxCell id="5" value="&lt;font style=&quot;font-size: 15px;&quot;&gt;if input.lenght &amp;gt; 2&lt;/font&gt;" style="rhombus;whiteSpace=wrap;html=1;fontSize=15;fontStyle=1" parent="1" vertex="1">
                    <mxGeometry x="530" y="350" width="140" height="90" as="geometry"/>
                </mxCell>
            </root>
        </mxGraphModel>
    </diagram>
</mxfile>